# AST/ASF file generated using VICON BodyLanguage
# -----------------------------------------------
:version 1.10
:name VICON
:units
  mass 1.0
  length 0.45
  angle deg
:documentation
   .ast/.asf automatically generated from VICON data using
   VICON BodyBuilder and BodyLanguage model FoxedUp or BRILLIANT.MOD
:root
   order TX TY TZ RX RY RZ
   axis XYZ
   position 0 0 0  
   orientation 0 0 0 
:bonedata
  begin
     id 1 
     name lhipjoint
     direction 0.570549 -0.739093 0.358072 
     length 2.41801 
     axis 0 0 0  XYZ
  end
  begin
     id 2 
     name lfemur
     direction 0.34202 -0.939693 0  
     length 7.44434  
     axis 0 0 20  XYZ
    dof rx ry rz
    limits (-160.0 20.0)
           (-70.0 70.0)
           (-60.0 70.0)
  end
  begin
     id 3 
     name ltibia
     direction 0.34202 -0.939693 0   
     length 7.60047   
     axis 0 0 20   XYZ
    dof rx
    limits (-10.0 170.0)
  end
  begin
     id 4 
     name lfoot
     direction 0.0909041 -0.249757 0.964032   
     length 2.03437   
     axis -90 7.62852e-016 20   XYZ
    dof rx rz
    limits (-45.0 90.0)
           (-70.0 20.0)
  end
  begin
     id 5 
     name ltoes
     direction 1.53547e-011 -4.2174e-011 1   
     length 1.02054   
     axis -90 7.62852e-016 20   XYZ
    dof rx
    limits (-90.0 20.0)
  end
  begin
     id 6 
     name rhipjoint
     direction -0.558096 -0.746754 0.361784   
     length 2.3932  
     axis 0 0 0  XYZ 
  end
  begin
     id 7 
     name rfemur
     direction -0.34202 -0.939693 0   
     length 7.3886   
     axis 0 0 -20   XYZ
    dof rx ry rz
    limits (-160.0 20.0)
           (-70.0 70.0)
           (-70.0 60.0)
  end
  begin
     id 8 
     name rtibia
     direction -0.34202 -0.939693 0   
     length 7.4839   
     axis 0 0 -20   XYZ
    dof rx
    limits (-10.0 170.0)
 end
 begin
     id 9 
     name rfoot
     direction -0.114619 -0.314914 0.942174   
     length 2.25127  
     axis -90 -7.62852e-016 -20   XYZ
    dof rx rz
    limits (-45.0 90.0)
           (-20.0 70.0)
  end
  begin
     id 10 
     name rtoes
     direction -1.53518e-011 -4.21881e-011 1   
     length 1.11821   
     axis -90 -7.62852e-016 -20   XYZ
    dof rx
    limits (-90.0 20.0)
  end
  begin
     id 11 
     name lowerback
     direction -0.00902269 0.996426 -0.0839821   
     length 2.25052   
     axis 0 0 0   XYZ
    dof rx ry rz
    limits (-20.0 45.0)
           (-30.0 30.0)
           (-30.0 30.0)
  end
  begin
     id 12 
     name upperback
     direction 0.0370973 0.999169 -0.0168941   
     length 2.24876   
     axis 0 0 0   XYZ
    dof rx ry rz
    limits (-20.0 45.0)
           (-30.0 30.0)
           (-30.0 30.0)
  end
  begin
     id 13 
     name thorax
     direction 0.0402726 0.998931 0.0227027   
     length 2.26408   
     axis 0 0 0   XYZ
    dof rx ry rz
    limits (-20.0 45.0)
           (-30.0 30.0)
           (-30.0 30.0)
  end
  begin
     id 14 
     name lowerneck
     direction -0.0733697 0.98508 0.155675   
     length 1.58204   
     axis 0 0 0   XYZ
    dof rx ry rz
    limits (-20.0 45.0)
           (-30.0 30.0)
           (-30.0 30.0)
  end
  begin
     id 15 
     name upperneck
     direction 0.0426554 0.993501 -0.105526   
     length 1.61222   
     axis 0 0 0   XYZ
    dof rx ry rz
    limits (-20.0 45.0)
           (-30.0 30.0)
           (-30.0 30.0)
  end
  begin
     id 16
     name head
     direction 0.020792 0.998384 -0.0528868  
     length 1.61527  
     axis 0 0 0   XYZ
    dof rx ry rz
    limits (-20.0 45.0)
           (-30.0 30.0)
           (-30.0 30.0)
  end
  begin
     id 17 
     name lclavicle
     direction 0.967109 0.155462 -0.201325  
     length 3.59357  
     axis 0 0 0   XYZ
    dof ry rz
    limits (-20.0 10.0)
           (0.0 20.0)
  end
  begin
     id 18 
     name lhumerus
     direction 1 -4.48968e-011 2.38195e-027   
     length 5.38154   
     axis 180 -30 -90   XYZ
    dof rx ry rz
    limits (-60.0 90.0)
           (-90.0 90.0)
           (-90.0 90.0)
  end
  begin
     id 19
     name lradius
     direction 1 -4.48961e-011 4.85371e-027   
     length 3.33312   
     axis 180 -30 -90   XYZ
    dof rx
    limits (-10.0 170.0)
  end
  begin
     id 20
     name lwrist
     direction 1 -4.48961e-011 4.76515e-027   
     length 1.66656   
     axis -3.27502e-015 90 90   XYZ
    dof ry
    limits (-180.0 0.0)
 end
  begin
     id 21 
     name lhand
     direction 1 -4.48951e-011 9.53074e-027   
     length 0.710789   
     axis -6.08098e-015 90 90   XYZ
    dof rx rz
    limits (-90.0 90.0)
           (-45.0 45.0)
  end
  begin
     id 22 
     name lfingers
     direction 1 -4.48953e-011 1.90613e-026   
     length 0.573057   
     axis -1.21619e-014 90 90   XYZ
    dof rx
    limits (0.0 90.0)
  end
  begin
     id 23
     name lthumb
     direction 0.707107 -6.34973e-011 0.707107   
     length 0.822798   
     axis -90 45 -9.86923e-015   XYZ
    dof rx rz
    limits (-45.0 45.0)
           (-45.0 45.0)
  end
  begin
     id 24 
     name rclavicle
     direction -0.9585 0.265289 -0.104398   
     length 3.42039  
     axis 0 0 0   XYZ 
    dof ry rz
    limits (-10.0 20.0)
           (-20.0 0.0)
  end
  begin
     id 25 
     name rhumerus
     direction -1 -4.48977e-011 2.21478e-027  
     length 5.16954   
     axis 180 30 90   XYZ
    dof rx ry rz
    limits (-90.0 60.0)
           (-90.0 90.0)
           (-90.0 90.0)
  end
  begin
     id 26 
     name rradius
     direction -1 -4.48967e-011 5.63677e-027   
     length 3.38287   
     axis 180 30 90   XYZ
    dof rx
    limits (-10.0 170.0)
  end
  begin
     id 27 
     name rwrist
     direction -1 -4.48967e-011 4.76501e-027   
     length 1.69144   
     axis -3.27502e-015 -90 -90   XYZ
    dof ry
    limits (-180.0 0.0)
  end
  begin
     id 28
     name rhand
     direction -1 -4.48902e-011 9.53292e-027   
     length 0.817967   
     axis -6.08098e-015 -90 -90   XYZ
    dof rx rz
    limits (-90.0 90.0)
           (-45.0 45.0)
  end
  begin
     id 29
     name rfingers
     direction -1 -4.49012e-011 1.90561e-026   
     length 0.659466   
     axis -1.21619e-014 -90 -90   XYZ
    dof rx
    limits (0.0 90.0)
  end
  begin
     id 30
     name rthumb
     direction -0.707107 -6.34944e-011 0.707107   
     length 0.946865   
     axis -90 -45 9.86923e-015   XYZ
    dof rx rz
    limits (-45.0 45.0)
           (-45.0 45.0)
  end
:hierarchy
  begin
    root lhipjoint rhipjoint lowerback
    lhipjoint lfemur
    lfemur ltibia
    ltibia lfoot
    lfoot ltoes
    rhipjoint rfemur
    rfemur rtibia
    rtibia rfoot
    rfoot rtoes
    lowerback upperback
    upperback thorax
    thorax lowerneck lclavicle rclavicle
    lowerneck upperneck
    upperneck head
    lclavicle lhumerus
    lhumerus lradius
    lradius lwrist
    lwrist lhand lthumb
    lhand lfingers
    rclavicle rhumerus
    rhumerus rradius
    rradius rwrist
    rwrist rhand rthumb
    rhand rfingers
  end

#!OML:ASF F:\twosubjects\two\wednesday\Session 1\Justin1.ASF
:FULLY-SPECIFIED
:DEGREES
217
root -6.35628 17.6083 -6.17732 -173.37 0.72218 -180.85
lowerback 2.05054 2.29546 -3.31123
upperback 0.276511 3.00323 1.0188
thorax -1.08954 1.52054 2.80594
lowerneck -10.4432 -10.8054 -16.8963
upperneck 7.40222 -13.393 12.2121
head 5.91205 -6.38742 5.26944
rclavicle -2.3059e-014 -1.43125e-014
rhumerus -51.1604 -25.8008 -57.8726
rradius 15.8662
rwrist 24.5002
rhand -13.6764 17.1756
rfingers 7.12502
rthumb 12.4411 -12.4342
lclavicle -2.3059e-014 -1.43125e-014
lhumerus -33.5544 14.2179 78.3329
lradius 38.4273
lwrist -4.18674
lhand -3.18692 35.6416
lfingers 7.12502
lthumb 22.5346 64.3466
rfemur -3.13379 -1.04028 18.4925
rtibia 50.5076
rfoot 24.6695 5.10132
rtoes 7.61521
lfemur -22.9644 0.276375 -23.542
ltibia 26.8235
lfoot -6.5235 -7.65305
ltoes -6.99591
218
root -6.38815 17.6025 -6.3262 -173.519 0.252905 -181.457
lowerback 2.21341 1.7318 -3.75149
upperback 0.296244 2.23677 1.07692
thorax -1.12296 1.1399 3.13607
lowerneck -10.1471 -10.4658 -16.8339
upperneck 7.17038 -12.9038 11.7399
head 5.67967 -6.18061 5.19042
rclavicle 1.1778e-014 -9.54166e-015
rhumerus -52.6981 -24.5815 -56.0222
rradius 16.3299
rwrist 22.9505
rhand -13.5538 16.4559
rfingers 7.12502
rthumb 12.5593 -13.1466
lclavicle 1.1778e-014 -9.54166e-015
lhumerus -34.2151 14.5417 77.7667
lradius 37.6318
lwrist -4.36804
lhand -3.44397 36.2462
lfingers 7.12502
lthumb 22.2878 64.9808
rfemur -4.60987 -1.8911 17.486
rtibia 53.3873
rfoot 23.3553 5.25706
rtoes -0.868834
lfemur -22.1666 -0.205304 -24.3203
ltibia 26.7402
lfoot -7.1376 -7.80538
ltoes -8.98637
219
root -6.38135 17.6115 -6.42432 -173.175 0.38248 -179.356
lowerback 2.7362 1.42433 -1.93289
upperback -0.19471 1.89436 1.88073
thorax -1.86007 0.985514 2.93367
lowerneck -9.79206 -10.1039 -16.6794
upperneck 7.22198 -12.4458 11.3197
head 5.53179 -5.98685 5.10731
rclavicle -1.64494e-014 9.14409e-015
rhumerus -54.3621 -23.0692 -54.268
rradius 16.8559
rwrist 21.1589
rhand -12.4998 14.4248
rfingers 7.12502
rthumb 13.5753 -15.1126
lclavicle -1.64494e-014 9.14409e-015
lhumerus -35.1608 15.3237 76.7865
lradius 36.3907
lwrist -5.36689
lhand -3.31837 34.5578
lfingers 7.12502
lthumb 22.4084 63.278
rfemur -7.23726 -1.35629 20.042
rtibia 56.0549
rfoot 21.9867 4.01249
rtoes -6.06848
lfemur -21.9339 -0.434779 -21.8153
ltibia 26.0591
lfoot -6.81222 -7.30792
ltoes -7.49972
220
root -6.43271 17.6278 -6.64504 -173.805 -0.588644 -180.951
lowerback 2.85 0.715085 -2.98425
upperback -0.151669 0.869784 1.54179
thorax -1.82315 0.465911 3.22294
lowerneck -10.3026 -9.82125 -15.7005
upperneck 8.17179 -12.0135 9.87946
head 5.69435 -5.81627 4.52299
rclavicle 9.83984e-015 1.03368e-014
rhumerus -56.092 -22.1517 -51.9222
rradius 17.0692
rwrist 20.4297
rhand -14.7667 16.8286
rfingers 7.12502
rthumb 11.3898 -12.8421
lclavicle 9.83984e-015 1.03368e-014
lhumerus -36.0902 15.9733 75.7262
lradius 35.1072
lwrist -6.42865
lhand -3.01582 33.5603
lfingers 7.12502
lthumb 22.6988 62.2452
rfemur -7.57008 -2.98541 17.6389
rtibia 58.2733
rfoot 20.0122 3.25058
rtoes -4.54967
lfemur -20.1914 -1.02458 -23.8457
ltibia 25.9647
lfoot -7.55728 -7.80254
ltoes -4.1905
221
root -6.4931 17.6277 -6.80898 -174.405 -0.716836 -182.513
lowerback 3.47099 0.300985 -4.03554
upperback -0.170994 0.255537 1.17828
thorax -2.14714 0.177359 3.46723
lowerneck -9.7388 -9.17957 -15.1719
upperneck 7.97683 -11.2308 9.3137
head 5.37452 -5.46689 4.38315
rclavicle -1.2424e-015 -1.23246e-014
rhumerus -57.7338 -21.6708 -48.9007
rradius 16.9492
rwrist 20.1897
rhand -15.2336 20.2722
rfingers 7.12502
rthumb 10.9395 -9.42276
lclavicle -1.2424e-015 -1.23246e-014
lhumerus -36.8958 15.9608 75.0748
lradius 34.1602
lwrist -6.73947
lhand -2.75809 34.3352
lfingers 7.12502
lthumb 22.9461 62.9896
rfemur -8.23583 -3.45068 15.1693
rtibia 60.4175
rfoot 18.0417 1.73108
rtoes 1.73294
lfemur -18.4678 -1.28822 -25.8368
ltibia 25.384
lfoot -7.91144 -7.85356
ltoes -1.17212
222
root -6.44643 17.6463 -6.91227 -173.51 0.66896 -179.674
lowerback 3.09973 0.419372 -2.2182
upperback -0.575693 0.557755 2.29511
thorax -2.37495 0.339467 3.58181
lowerneck -9.72125 -8.76345 -15.2073
upperneck 8.10195 -10.6684 9.26311
head 5.34049 -5.19944 4.43664
rclavicle 1.73937e-015 -8.34896e-015
rhumerus -58.2341 -19.8756 -48.2531
rradius 18.2154
rwrist 15.3077
rhand -13.3049 16.4703
rfingers 7.12502
rthumb 12.7992 -13.1173
lclavicle 1.73937e-015 -8.34896e-015
lhumerus -37.5209 16.2159 74.5353
lradius 33.2091
lwrist -7.17259
lhand -2.60115 35.3837
lfingers 7.12502
lthumb 23.0967 64.0194
rfemur -11.6843 -0.936766 18.8697
rtibia 62.4268
rfoot 15.9126 -1.52197
rtoes 7.92321
lfemur -18.9036 -0.682734 -22.3984
ltibia 24.6431
lfoot -7.61934 -6.97985
ltoes -0.337481
223
root -6.47739 17.6481 -7.13345 -174.226 -0.299396 -182.566
lowerback 2.81861 -0.281728 -4.94642
upperback 0.0203509 -0.518279 1.74757
thorax -1.50144 -0.220693 4.6061
lowerneck -10.3215 -8.59316 -15.4966
upperneck 8.24645 -10.313 9.50684
head 5.47091 -5.00623 4.57661
rclavicle -3.18055e-015 -1.27222e-014
rhumerus -58.5293 -19.0998 -46.7866
rradius 19.0591
rwrist 11.9211
rhand -13.7453 14.0453
rfingers 7.12502
rthumb 12.3747 -15.5684
lclavicle -3.18055e-015 -1.27222e-014
lhumerus -37.5862 16.9017 74.0242
lradius 32.0383
lwrist -8.07454
lhand -2.42187 36.0215
lfingers 7.12502
lthumb 23.2687 64.6355
rfemur -11.8268 -2.93952 15.0086
rtibia 64.1609
rfoot 13.045 -0.800771
rtoes 7.57682
lfemur -16.9306 -0.968414 -25.8264
ltibia 24.1963
lfoot -8.24869 -7.8957
ltoes 0.0155672
224
root -6.51032 17.6529 -7.28081 -174.742 0.764251 -182.068
lowerback 3.16716 -0.228905 -4.25216
upperback 0.407362 -0.404109 1.88979
thorax -1.31375 -0.168589 4.35627
lowerneck -11.2526 -8.3861 -14.8548
upperneck 8.66919 -9.92774 8.83851
head 5.6393 -4.81757 4.27326
rclavicle 8.74653e-015 3.97569e-015
rhumerus -58.8929 -18.5263 -45.3732
rradius 19.8594
rwrist 8.85445
rhand -14.0271 13.8679
rfingers 7.12502
rthumb 12.103 -15.7621
lclavicle 8.74653e-015 3.97569e-015
lhumerus -37.4101 16.9204 73.5522
lradius 30.7352
lwrist -8.61416
lhand -2.09804 35.747
lfingers 7.12502
lthumb 23.5794 64.3214
rfemur -13.0847 -1.89817 15.3566
rtibia 65.7247
rfoot 10.8701 -1.41254
rtoes 2.68707
lfemur -15.5794 -0.676768 -25.3967
ltibia 23.7622
lfoot -8.67644 -7.08454
ltoes 0.104955
225
root -6.5305 17.6611 -7.44649 -174.566 1.33707 -180.724
lowerback 2.9441 -0.381139 -2.6772
upperback 0.274459 -0.53236 2.18518
thorax -1.32328 -0.232777 3.77408
lowerneck -11.8572 -8.09262 -13.9569
upperneck 9.44399 -9.52481 8.08079
head 5.85175 -4.63193 3.91321
rclavicle -1.98785e-016 -1.98785e-014
rhumerus -59.677 -17.7638 -43.757
rradius 20.5966
rwrist 5.90428
rhand -13.1608 16.2589
rfingers 7.12502
rthumb 12.9382 -13.32
lclavicle -1.98785e-016 -1.98785e-014
lhumerus -37.8071 16.5191 72.8266
lradius 29.3364
lwrist -8.92386
lhand -1.83653 35.3652
lfingers 7.12502
lthumb 23.8302 63.9071
rfemur -14.7768 -1.02768 16.78
rtibia 66.899
rfoot 9.13618 -2.75352
rtoes 1.11926
lfemur -14.7095 -0.422481 -24.0036
ltibia 22.9166
lfoot -8.8017 -6.76119
ltoes 0.693848
226
root -6.56799 17.6505 -7.62141 -175.371 0.914291 -182.901
lowerback 3.41888 -0.798231 -4.60181
upperback 0.711474 -1.17909 1.77034
thorax -1.05337 -0.566175 4.46172
lowerneck -13.1321 -8.15941 -14.2002
upperneck 10.0337 -9.44685 8.29001
head 6.2644 -4.56367 3.98394
rclavicle 1.21259e-014 2.06736e-014
rhumerus -59.8586 -17.922 -41.3378
rradius 21.2348
rwrist 3.62508
rhand -13.2181 13.2429
rfingers 7.12502
rthumb 12.883 -16.3394
lclavicle 1.21259e-014 2.06736e-014
lhumerus -37.7137 16.9885 72.5606
lradius 28.07
lwrist -9.96007
lhand -1.32853 35.8633
lfingers 7.12502
lthumb 24.3173 64.3408
rfemur -15.1026 -1.91299 13.7951
rtibia 67.9807
rfoot 7.40672 -3.16891
rtoes 5.50273
lfemur -13.0005 -0.527605 -26.587
ltibia 22.6623
lfoot -9.34513 -7.24047
ltoes -0.408012
227
root -6.54518 17.655 -7.75104 -175.172 1.79309 -182.36
lowerback 3.47164 -0.805564 -4.70163
upperback 0.57601 -1.18735 2.18494
thorax -1.21056 -0.561022 4.95372
lowerneck -13.0243 -7.772 -14.0465
upperneck 10.022 -8.9383 8.11854
head 6.1692 -4.32669 3.96963
rclavicle -1.59028e-014 1.90833e-014
rhumerus -60.2143 -17.4976 -39.2794
rradius 22.1519
rwrist 1.47411
rhand -13.2652 11.2675
rfingers 7.12502
rthumb 12.8375 -18.3177
lclavicle -1.59028e-014 1.90833e-014
lhumerus -38.4016 17.2558 72.0353
lradius 27.3982
lwrist -11.0134
lhand -0.580552 36.684
lfingers 7.12502
lthumb 25.0342 65.0635
rfemur -17.2111 -0.621723 14.622
rtibia 68.8191
rfoot 6.02658 -4.94411
rtoes 6.04019
lfemur -12.3574 -0.185455 -25.8941
ltibia 21.708
lfoot -9.25075 -6.80599
ltoes -2.03751
